<svg id="Layer_1" data-name="Layer 1" xmlns="http://www.w3.org/2000/svg" viewBox="0 0 80 80"><defs><style>.cls-1{fill:#99c0e6;}.cls-1,.cls-2,.cls-3{stroke:#0067cc;stroke-linecap:round;stroke-linejoin:round;stroke-width:1.6px;}.cls-2{fill:#fff;}.cls-3{fill:#e2eef9;}</style></defs><title>Prepaid envelopes mobile</title><rect class="cls-1" x="9" y="31.7" width="62" height="17"/><path class="cls-1" d="M61.42,18.7H18.58A7.54,7.54,0,0,0,11.36,24L9,31.7H71L68.64,24A7.54,7.54,0,0,0,61.42,18.7Z"/><rect class="cls-2" x="17" y="1.38" width="46" height="56.62"/><path class="cls-3" d="M71,88.7H9v-57H9a13.65,13.65,0,0,0,9.66,4H61.34a13.65,13.65,0,0,0,9.66-4h0Z"/><line class="cls-2" x1="25" y1="10" x2="56" y2="10"/><line class="cls-2" x1="56" y1="18" x2="25" y2="18"/><line class="cls-2" x1="56" y1="26.9" x2="25" y2="26.9"/><line class="cls-3" x1="40" y1="35.7" x2="40" y2="88.7"/></svg>