<svg id="Layer_1" data-name="Layer 1" xmlns="http://www.w3.org/2000/svg" viewBox="0 0 80 80"><defs><style>.cls-1{fill:none;}.cls-1,.cls-2,.cls-3{stroke:#0067cc;stroke-linecap:round;stroke-linejoin:round;stroke-width:1.6px;}.cls-2{fill:#e2eef9;}.cls-3{fill:#99c0e6;}.cls-4{fill:#0067cc;}</style></defs><title>For Collectors mobile</title><path class="cls-1" d="M4.15,62.92a20.22,20.22,0,0,1,6.14,1.25c5.49,2,17.54,6.38,27.65,6.38,7.72,0,14.5-1.11,22.8-8.95,2.77-2.62,11.15-11.19,14.12-15a4.63,4.63,0,0,0-.46-6.22h0a4.63,4.63,0,0,0-6.5.11l-13.51,14"/><path class="cls-1" d="M67.37,40.64a4.64,4.64,0,0,0-1-1.47h0a4.63,4.63,0,0,0-6.5.1L51.28,48"/><path class="cls-1" d="M58.92,39.5a4.93,4.93,0,0,0-.77-1h0a4.63,4.63,0,0,0-6.5.11l-8.94,9.1"/><path class="cls-1" d="M29.17,58.83h20.1a5.28,5.28,0,0,0,5.14-5.4h0A5.28,5.28,0,0,0,49.27,48H33.83a4.52,4.52,0,0,1-3-1.13c-.91-.81-2.15-1.87-3.06-2.52-1.63-1.15-7.24-5.24-14.65-4-3.81.63-7,1.3-9,1.85"/><circle class="cls-2" cx="39" cy="15.63" r="14"/><circle class="cls-3" cx="39" cy="15.63" r="7"/><path class="cls-4" d="M18,28.51a.8.8,0,0,1-.8-.8,2.88,2.88,0,0,0-2.88-2.88.8.8,0,1,1,0-1.6,2.88,2.88,0,0,0,2.88-2.88.8.8,0,0,1,1.6,0,2.88,2.88,0,0,0,2.88,2.88.8.8,0,1,1,0,1.6,2.88,2.88,0,0,0-2.88,2.88A.8.8,0,0,1,18,28.51ZM16.85,24A4.66,4.66,0,0,1,18,25.16,4.66,4.66,0,0,1,19.11,24,4.66,4.66,0,0,1,18,22.9,4.66,4.66,0,0,1,16.85,24Z"/><path class="cls-4" d="M61.82,14.21a.8.8,0,0,1-.8-.8,5.08,5.08,0,0,0-5.08-5.07.8.8,0,1,1,0-1.6A5.09,5.09,0,0,0,61,1.67a.8.8,0,0,1,1.6,0,5.08,5.08,0,0,0,5.07,5.07.8.8,0,0,1,0,1.6,5.07,5.07,0,0,0-5.07,5.07A.8.8,0,0,1,61.82,14.21ZM59.11,7.54a6.77,6.77,0,0,1,2.71,2.7,6.68,6.68,0,0,1,2.7-2.7,6.65,6.65,0,0,1-2.7-2.71A6.73,6.73,0,0,1,59.11,7.54Z"/></svg>