<svg id="Layer_1" data-name="Layer 1" xmlns="http://www.w3.org/2000/svg" viewBox="0 0 80 80"><defs><style>.cls-1{fill:#e2eef9;}.cls-1,.cls-2{stroke:#0067cc;stroke-linecap:round;stroke-linejoin:round;stroke-width:1.6px;}.cls-2{fill:#99c0e6;}</style></defs><title>Coins mobile</title><path class="cls-1" d="M28,70.47v7.94c0,3.5,10.3,6.34,23,6.34s23-2.84,23-6.34V70.47Z"/><ellipse class="cls-2" cx="51" cy="70.47" rx="23" ry="6.34"/><path class="cls-1" d="M28,59.47v7.94c0,3.5,10.3,6.34,23,6.34s23-2.84,23-6.34V59.47Z"/><ellipse class="cls-2" cx="51" cy="59.47" rx="23" ry="6.34"/><path class="cls-1" d="M33,47.47v7.94c0,3.5,10.3,6.34,23,6.34s23-2.84,23-6.34V47.47Z"/><ellipse class="cls-2" cx="56" cy="47.47" rx="23" ry="6.34"/><path class="cls-1" d="M28,35.47v7.94c0,3.5,10.3,6.34,23,6.34s23-2.84,23-6.34V35.47Z"/><ellipse class="cls-2" cx="51" cy="35.47" rx="23" ry="6.34"/><circle class="cls-1" cx="26" cy="25.28" r="24"/><circle class="cls-2" cx="26" cy="25.28" r="13"/></svg>