<svg xmlns="http://www.w3.org/2000/svg" viewBox="0 0 80 80"><defs><style>.cls-1{isolation:isolate;}.cls-2,.cls-6{fill:#fff;}.cls-2,.cls-3,.cls-4,.cls-7{stroke:#0067cc;stroke-linecap:round;stroke-linejoin:round;stroke-width:1.6px;}.cls-3{fill:#99c0e6;}.cls-4{fill:#e2eef9;}.cls-5{fill:#e5e5e5;mix-blend-mode:multiply;}.cls-7{fill:none;}</style></defs><title>What&amp;apos;s New mobile</title><g class="cls-1"><g id="Layer_1" data-name="Layer 1"><path class="cls-2" d="M42.19,100.7,70.41,38.18H8.76L37,100.7A2.87,2.87,0,0,0,42.19,100.7Z"/><path class="cls-3" d="M53.16,76.39A90.85,90.85,0,0,1,22.66,69l5.86,13a99,99,0,0,0,20.2,4.29Z"/><path class="cls-3" d="M61.81,57.22A91.24,91.24,0,0,1,11.22,43.63L17.93,58.5A99.66,99.66,0,0,0,57.2,67.44Z"/><path class="cls-4" d="M12.86,47.25c5.32,1.82,15.29,3,26.73,3s21.4-1.23,26.72-3l4.1-9.07H8.76Z"/><ellipse class="cls-3" cx="39.59" cy="38.18" rx="30.82" ry="6.06"/><path class="cls-5" d="M53.21,43.61,40,102.34a2.79,2.79,0,0,0,2.2-1.63L69.93,39.23C68.2,41.16,61.85,42.77,53.21,43.61Z"/><polygon class="cls-3" points="18.82 23.12 16.07 25.25 16.05 21.77 13.18 19.82 16.48 18.73 17.45 15.39 19.51 18.19 22.98 18.09 20.95 20.91 22.13 24.18 18.82 23.12"/><polygon class="cls-3" points="51.1 15.39 46.26 16.54 48.29 12 45.7 7.76 50.65 8.29 53.88 4.51 54.91 9.38 59.49 11.29 55.19 13.77 54.78 18.72 51.1 15.39"/><path class="cls-6" d="M34.37,9.47l-3.64,1.67a22.93,22.93,0,0,1-2.09-9l4-.1A18.7,18.7,0,0,0,34.37,9.47Z"/><path class="cls-7" d="M34.37,9.47l-3.64,1.67a22.93,22.93,0,0,1-2.09-9l4-.1A18.7,18.7,0,0,0,34.37,9.47Z"/><path class="cls-6" d="M64.77,20.59l3.35,2.2a22.77,22.77,0,0,1-6.54,6.54L59.38,26A18.83,18.83,0,0,0,64.77,20.59Z"/><path class="cls-7" d="M64.77,20.59l3.35,2.2a22.77,22.77,0,0,1-6.54,6.54L59.38,26A18.83,18.83,0,0,0,64.77,20.59Z"/></g></g></svg>