<svg xmlns="http://www.w3.org/2000/svg" viewBox="0 0 80 80"><defs><style>.cls-1{isolation:isolate;}.cls-2{fill:#fff;opacity:0.25;}.cls-3{fill:#e2eef9;}.cls-3,.cls-4,.cls-6{stroke:#0067cc;}.cls-3,.cls-4,.cls-5,.cls-6{stroke-linecap:round;stroke-linejoin:round;stroke-width:1.6px;}.cls-4{fill:#99c0e6;}.cls-5{fill:#e5e5e5;stroke:#e5e5e5;mix-blend-mode:multiply;}.cls-6{fill:none;}</style></defs><title>Stamps mobile</title><g class="cls-1"><g id="Layer_1" data-name="Layer 1"><path class="cls-2" d="M68.44,75.51c-2.48,0-1.76,4-4.34,4s-1.74-4-4.32-4-1.76,4-4.34,4h.05c-2.48,0-1.74-4-4.32-4s-1.76,4-4.34,4h.05c-2.48,0-1.74-4-4.32-4s-1.76,4-4.34,4h.05c-2.48,0-1.74-4-4.32-4s-1.76,4-4.34,4h.05c-2.47,0-1.74-4-4.32-4s-1.76,4-4.34,4h.05c-2.47,0-1.74-4-4.32-4s-1.76,4-4.34,4a8.65,8.65,0,0,1-4.81-2,9.37,9.37,0,0,0,1.78-4.53h0c0-2.48-4-1.76-4-4.34s4-1.74,4-4.32-4-1.76-4-4.34v0c0-2.48,4-1.74,4-4.32v-.12c0-2.47-4-1.75-4-4.34v.06c0-2.48,4-1.74,4-4.32v-.06c0-2.47-4-1.75-4-4.34v.06c0-2.48,4-1.74,4-4.33,0-1.19-.91-1.64-1.87-2.07L20.71,5c2.47,0,1.75-4,4.34-4H25c2.47,0,1.74,4,4.33,4s1.76-4,4.35-4h0c2.47,0,1.73,4,4.32,4s1.75-4,4.34-4h-.06c2.48,0,1.74,4,4.33,4s1.75-4,4.34-4h-.06c2.48,0,1.74,4,4.33,4s1.75-4,4.34-4h-.06c2.48,0,1.74,4,4.32,4h-.14c2.48,0,1.76-4,4.34-4a8.65,8.65,0,0,1,4.81,2A9.47,9.47,0,0,0,71,7.65h0c0,2.48,4,1.76,4,4.34s-4,1.74-4,4.32,4,1.76,4,4.35V20.6c0,2.48-4,1.74-4,4.32s4,1.76,4,4.34v-.05c0,2.48-4,1.74-4,4.32s4,1.76,4,4.34v0c0,2.48-4,1.74-4,4.32s4,1.76,4,4.34-4,1.74-4,4.32,4,1.76,4,4.34v.06c0,2.48-4,1.74-4,4.33s4,1.75,4,4.34v-.06c0,2.48-4,1.74-4,4.33s4,1.75,4,4.34a8.63,8.63,0,0,1-2,4.8A9.47,9.47,0,0,0,68.3,75.5"/><rect class="cls-3" x="13.93" y="17.25" width="52.49" height="45.98" transform="translate(-0.15 80.32) rotate(-89.86)"/><line class="cls-4" x1="40.62" y1="54.57" x2="40.64" y2="50.34"/><polygon class="cls-4" points="41.08 50.34 49.05 51.56 48.15 48.02 56.82 43.2 52.66 41.04 53.4 35.81 45.68 39.21 47.95 30.06 43.58 32.22 40.74 26.13 40.67 26.13 37.77 32.19 33.42 29.99 35.6 39.16 27.91 35.68 28.67 41.11 24.53 43.2 33.05 47.94 32.1 51.48 40.08 50.34 41.08 50.34"/><path class="cls-5" d="M20.87,9c.73,1.66-1.78,3.68-.15,5.32l-.1-.1c1.75,1.75,4.05-1.57,5.88.26a8.66,8.66,0,0,1,2,4.82A9.42,9.42,0,0,0,24,21.24h0c-1.75,1.75,1.57,4.06-.26,5.88s-4.05-1.59-5.88.23,1.57,4.06-.26,5.88l0,0c-1.75,1.75-4-1.59-5.87.24L9,36.75Z"/><path class="cls-4" d="M20.87,5c.73,1.66-1.78,3.68-.15,5.32l-.1-.1c1.75,1.75,4.05-1.57,5.88.26a8.66,8.66,0,0,1,2,4.82A9.42,9.42,0,0,0,24,17.24h0c-1.75,1.75,1.57,4.06-.26,5.88s-4.05-1.59-5.88.23,1.57,4.06-.26,5.88l0,0c-1.75,1.75-4-1.59-5.87.24L9,32.75"/><path class="cls-6" d="M68.44,75.51c-2.48,0-1.76,4-4.34,4s-1.74-4-4.32-4-1.76,4-4.34,4h.05c-2.48,0-1.74-4-4.32-4s-1.76,4-4.34,4h.05c-2.48,0-1.74-4-4.32-4s-1.76,4-4.34,4h.05c-2.48,0-1.74-4-4.32-4s-1.76,4-4.34,4h.05c-2.47,0-1.74-4-4.32-4s-1.76,4-4.34,4h.05c-2.47,0-1.74-4-4.32-4s-1.76,4-4.34,4a8.65,8.65,0,0,1-4.81-2,9.37,9.37,0,0,0,1.78-4.53h0c0-2.48-4-1.76-4-4.34s4-1.74,4-4.32-4-1.76-4-4.34v0c0-2.48,4-1.74,4-4.32v-.12c0-2.47-4-1.75-4-4.34v.06c0-2.48,4-1.74,4-4.32v-.06c0-2.47-4-1.75-4-4.34v.06c0-2.48,4-1.74,4-4.33,0-1.19-.91-1.64-1.87-2.07L20.71,5c2.47,0,1.75-4,4.34-4H25c2.47,0,1.74,4,4.33,4s1.76-4,4.35-4h0c2.47,0,1.73,4,4.32,4s1.75-4,4.34-4h-.06c2.48,0,1.74,4,4.33,4s1.75-4,4.34-4h-.06c2.48,0,1.74,4,4.33,4s1.75-4,4.34-4h-.06c2.48,0,1.74,4,4.32,4h-.14c2.48,0,1.76-4,4.34-4a8.65,8.65,0,0,1,4.81,2A9.47,9.47,0,0,0,71,7.65h0c0,2.48,4,1.76,4,4.34s-4,1.74-4,4.32,4,1.76,4,4.35V20.6c0,2.48-4,1.74-4,4.32s4,1.76,4,4.34v-.05c0,2.48-4,1.74-4,4.32s4,1.76,4,4.34v0c0,2.48-4,1.74-4,4.32s4,1.76,4,4.34-4,1.74-4,4.32,4,1.76,4,4.34v.06c0,2.48-4,1.74-4,4.33s4,1.75,4,4.34v-.06c0,2.48-4,1.74-4,4.33s4,1.75,4,4.34a8.63,8.63,0,0,1-2,4.8A9.47,9.47,0,0,0,68.3,75.5"/></g></g></svg>